<svg id="Layer_1" height="512" viewBox="0 0 512 512" width="512" xmlns="http://www.w3.org/2000/svg" data-name="Layer 1"><path d="m139.46 336.8a6 6 0 0 0 6-6v-5.83a6 6 0 0 0 -12 0v5.83a6 6 0 0 0 6 6z"/><path d="m139.46 444.24a6 6 0 0 0 6-6v-88.53a6 6 0 0 0 -12 0v88.53a6 6 0 0 0 6 6z"/><path d="m355.3 44.527a6 6 0 0 0 -10.354 0l-36.67 62.6a48.51 48.51 0 0 0 76.15 58.817 48.548 48.548 0 0 0 7.553-58.814zm20.641 112.931a36.5 36.5 0 0 1 -57.311-44.265l31.491-53.763 31.5 53.761a36.543 36.543 0 0 1 -5.683 44.267z"/><path d="m374.512 125.14a6 6 0 0 0 -7.073 4.688 17.639 17.639 0 0 1 -4.839 9 17.365 17.365 0 0 1 -6.71 4.2 6 6 0 1 0 3.9 11.349 29.711 29.711 0 0 0 19.41-22.163 6 6 0 0 0 -4.688-7.074z"/><path d="m350.12 10.87a100.331 100.331 0 0 0 -81.52 41.75h-183.92a23.28 23.28 0 0 0 0 46.56h6.15v154.42h-6.15a23.275 23.275 0 1 0 0 46.55h6.15v154.42h-6.15a23.28 23.28 0 0 0 0 46.56h282.12a23.28 23.28 0 0 0 0-46.56h-6.16v-154.42h6.16a23.275 23.275 0 1 0 0-46.55h-6.16v-42.324a100.479 100.479 0 0 0 -10.52-200.406zm-265.44 76.31a11.28 11.28 0 1 1 0-22.56h176.474a98.918 98.918 0 0 0 -8.572 22.56zm282.12 379.39a11.28 11.28 0 1 1 0 22.56h-282.12a11.282 11.282 0 0 1 -7.971-19.264 11.172 11.172 0 0 1 7.971-3.3h25.653a6 6 0 1 0 0-12h-7.5v-154.416h245.807v154.42h-213.973a6 6 0 1 0 0 12zm0-200.97a11.275 11.275 0 1 1 0 22.55h-282.12a11.293 11.293 0 0 1 -11.28-11.28 11.275 11.275 0 0 1 11.28-11.27h198.987a6 6 0 0 0 0-12h-180.837v-154.42h147.552a100.533 100.533 0 0 0 98.258 112.631v41.789h-36.973a6 6 0 0 0 0 12zm-12.461-65.873c-1.483.069-2.863.1-4.219.1a88.515 88.515 0 0 1 -86.838-105.427 87.411 87.411 0 0 1 13.2-32.105 88.481 88.481 0 1 1 77.858 137.436z"/></svg>