<svg id="Capa_1" enable-background="new 0 0 512 512" height="512" viewBox="0 0 512 512" width="512" xmlns="http://www.w3.org/2000/svg"><g><path d="m512 274.879c0-65.441-51.763-119.014-116.494-121.941-.033-76.896-62.602-139.446-139.506-139.446s-139.473 62.55-139.506 139.446c-64.731 2.927-116.494 56.5-116.494 121.941 0 41.579 20.908 78.949 53.545 101.091-9.302 3.348-18.304 7.387-27.035 12.168l14.409 26.313c25.171-13.784 53.191-20.485 85.661-20.485 12.021 0 23.891 3.784 36.458 7.79 7.33 2.336 14.785 4.712 22.627 6.509l23.93 90.243h92.81l23.93-90.243c7.842-1.797 15.297-4.172 22.627-6.509 12.567-4.006 24.437-7.79 36.458-7.79 32.47 0 60.49 6.701 85.661 20.485l14.409-26.313c-8.731-4.781-17.733-8.82-27.035-12.168 32.637-22.142 53.545-59.512 53.545-101.091zm-256-231.387c60.382 0 109.507 49.125 109.507 109.507 0 .764-.019 1.529-.035 2.295-7.792 1.59-15.414 3.933-22.742 6.999-24.04-19.058-54.336-30.204-86.73-30.204s-62.69 11.146-86.73 30.204c-7.327-3.066-14.95-5.409-22.742-6.999-.016-.765-.035-1.531-.035-2.295 0-60.382 49.125-109.507 109.507-109.507zm-23.323 425.016-14.221-53.628c10.378 2.95 21.259 4.476 32.288 4.476h10.512c11.029 0 21.909-1.527 32.288-4.476l-14.221 53.628zm119.001-98.992c2.666-5.677 4.609-11.318 6.471-16.731 5.284-15.358 10.274-29.865 31.517-46.244l-18.318-23.758c-28.366 21.871-35.686 43.147-41.566 60.242-5.335 15.508-8.859 25.753-26.948 35.803-12.395 6.886-26.771 10.526-41.578 10.526h-10.512c-14.806 0-29.183-3.64-41.578-10.526-18.088-10.05-21.613-20.295-26.947-35.803-5.881-17.096-13.2-38.372-41.567-60.243l-18.318 23.758c21.243 16.378 26.233 30.885 31.517 46.244 1.862 5.413 3.804 11.054 6.471 16.731-10.58-3.082-21.632-5.55-33.742-5.55-7.929 0-15.629.373-23.141 1.079-42.666-8.75-73.439-46.349-73.439-90.165 0-50.77 41.304-92.073 92.073-92.073 8.048 0 16.046 1.067 23.766 3.121-11.421 14.672-20.031 31.787-24.909 50.651l29.045 7.511c12.485-48.281 56.084-82 106.025-82s93.54 33.72 106.025 82l29.045-7.511c-4.878-18.864-13.488-35.98-24.909-50.651 7.72-2.055 15.717-3.121 23.766-3.121 50.77 0 92.073 41.304 92.073 92.073 0 43.816-30.773 81.415-73.439 90.167-7.512-.706-15.211-1.079-23.141-1.079-12.11-.001-23.162 2.467-33.742 5.549z"/></g></svg>