<?xml version="1.0" encoding="iso-8859-1"?>
<!-- Generator: Adobe Illustrator 19.0.0, SVG Export Plug-In . SVG Version: 6.00 Build 0)  -->
<svg version="1.1" id="Capa_1" xmlns="http://www.w3.org/2000/svg" xmlns:xlink="http://www.w3.org/1999/xlink" x="0px" y="0px"
	 viewBox="0 0 509.891 509.891" style="enable-background:new 0 0 509.891 509.891;" xml:space="preserve">
<path style="fill:#FFB300;" d="M478.078,225.885l-33.241-116.093c-6.393-22.476-26.913-37.989-50.28-38.014h-57.565
	c-11.528-0.039-22.961,2.092-33.702,6.28l-238.254,91.56c-15.269,5.979-26.879,18.734-31.399,34.497l-2.784,9.671l-0.188,0.649
	c-1.439,5.598,1.932,11.303,7.531,12.743c5.41,1.391,10.959-1.712,12.606-7.049l0.147-0.502
	c4.026-13.219,16.22-22.252,30.038-22.251h62.379c14.002,0.022,26.297,9.311,30.143,22.775l33.283,116.176
	c1.59,5.557,7.384,8.773,12.942,7.183c0.389-0.111,0.772-0.245,1.146-0.401l251.192-104.663
	C476.971,236.39,479.554,230.989,478.078,225.885z"/>
<g>
	<path style="fill:#FFCA28;" d="M229.83,320.071l-33.241-116.092c-6.393-22.476-26.913-37.989-50.28-38.014H83.93
		C60.596,166,40.104,181.48,33.692,203.916L0.409,320.092c-1.595,5.556,1.615,11.353,7.171,12.948
		c0.935,0.269,1.903,0.405,2.877,0.407h209.326c5.78-0.007,10.461-4.698,10.454-10.478c-0.001-0.973-0.138-1.941-0.407-2.877
		V320.071z"/>
	<path style="fill:#FFCA28;" d="M248.238,176.442c-5.78,0-10.466-4.686-10.466-10.466c0-4.359,2.702-8.262,6.782-9.796
		l167.461-62.798c5.416-2.035,11.456,0.707,13.491,6.123s-0.707,11.456-6.123,13.491l-167.461,62.798
		C250.743,176.229,249.495,176.449,248.238,176.442z"/>
</g>
<path style="fill:#FFC107;" d="M509.477,320.082l-33.241-116.093c-6.393-22.476-26.913-37.989-50.28-38.014h-57.565
	c-11.528-0.039-22.961,2.092-33.702,6.28l-238.255,91.56c-15.269,5.979-26.879,18.734-31.399,34.497l-2.784,9.671l-0.188,0.649
	c-1.439,5.598,1.932,11.303,7.531,12.743c5.41,1.391,10.959-1.712,12.607-7.049l0.147-0.502
	c4.026-13.219,16.22-22.252,30.038-22.251h62.379c14.002,0.022,26.297,9.311,30.143,22.775l33.283,116.176
	c1.59,5.557,7.384,8.773,12.942,7.183c0.389-0.111,0.772-0.245,1.146-0.401l251.192-104.663
	C508.37,330.587,510.953,325.186,509.477,320.082z"/>
<g>
	<path style="fill:#FFD54F;" d="M258.286,424.745l-33.262-116.093c-6.391-22.468-26.9-37.98-50.259-38.014h-62.379
		c-23.334,0.035-43.826,15.515-50.238,37.951L28.864,424.766c-1.584,5.559,1.639,11.35,7.198,12.934
		c0.927,0.264,1.886,0.399,2.85,0.401h209.326c5.78-0.007,10.461-4.698,10.454-10.478
		C258.691,426.648,258.554,425.68,258.286,424.745z"/>
	<path style="fill:#FFD54F;" d="M248.238,291.571c-5.78,0-10.466-4.686-10.466-10.466c0-4.359,2.702-8.262,6.782-9.797
		l167.461-62.798c5.416-2.035,11.456,0.707,13.491,6.123s-0.707,11.456-6.123,13.491l0,0l-167.461,62.798
		C250.743,291.358,249.495,291.578,248.238,291.571z"/>
</g>
<g>
</g>
<g>
</g>
<g>
</g>
<g>
</g>
<g>
</g>
<g>
</g>
<g>
</g>
<g>
</g>
<g>
</g>
<g>
</g>
<g>
</g>
<g>
</g>
<g>
</g>
<g>
</g>
<g>
</g>
</svg>
