<?xml version="1.0" encoding="utf-8"?>
<!-- Generator: Adobe Illustrator 24.1.1, SVG Export Plug-In . SVG Version: 6.00 Build 0)  -->
<svg version="1.1" id="圖層_1" xmlns="http://www.w3.org/2000/svg" xmlns:xlink="http://www.w3.org/1999/xlink" x="0px" y="0px"
	 viewBox="0 0 500 500.02" style="enable-background:new 0 0 500 500.02;" xml:space="preserve">
<style type="text/css">
	.st0{clip-path:url(#SVGID_2_);}
	.st1{clip-path:url(#SVGID_4_);fill:none;stroke:#F78686;stroke-width:6.2297;stroke-miterlimit:10;}
	.st2{clip-path:url(#SVGID_4_);fill:#F78686;}
</style>
<g id="圖稿_8_1_">
	<g>
		<defs>
			<rect id="SVGID_1_" x="113.57" y="120.94" width="272" height="286"/>
		</defs>
		<clipPath id="SVGID_2_">
			<use xlink:href="#SVGID_1_"  style="overflow:visible;"/>
		</clipPath>
		<g class="st0">
			<defs>
				<rect id="SVGID_3_" x="113.57" y="120.94" width="272" height="286"/>
			</defs>
			<clipPath id="SVGID_4_">
				<use xlink:href="#SVGID_3_"  style="overflow:visible;"/>
			</clipPath>
			<path class="st1" d="M182.55,262.12v-51.12c0-4.4,5.32-7.99,11.82-7.99c6.5,0,11.82,3.6,11.82,7.99v50.74"/>
			<path class="st1" d="M235.24,263.47v-82.37c0-7.08,6.54-12.88,14.52-12.88c7.99,0,14.52,5.79,14.52,12.88v81.77"/>
			<path class="st1" d="M293.33,256.79v69.89c0,5.58-6.54,10.15-14.52,10.15c-7.99,0-14.52-4.57-14.52-10.15v-69.42"/>
			<path class="st1" d="M235.24,242.77v69.89c0,5.58-6.54,10.15-14.52,10.15s-14.52-4.57-14.52-10.15v-69.42"/>
			<path class="st1" d="M293.33,282.8v-60.81c0-5.23,5.47-9.51,12.16-9.51c6.69,0,12.16,4.28,12.16,9.51v60.37"/>
			<path class="st1" d="M331.16,268.88v28.9c0,2.31-3.04,4.2-6.75,4.2c-3.72,0-6.76-1.89-6.76-4.2v-28.71"/>
			<path class="st1" d="M182.55,258.03v28.9c0,2.31-3.04,4.2-6.75,4.2c-3.72,0-6.76-1.89-6.76-4.2v-28.71"/>
			<line class="st1" x1="114.14" y1="257.23" x2="171.09" y2="257.56"/>
			<line class="st1" x1="385.41" y1="269.44" x2="328.46" y2="269.1"/>
			<path class="st2" d="M329.35,270.73h-0.82c-0.26,0-0.47-0.21-0.47-0.46v-3.78c0-0.26,0.21-0.46,0.47-0.46h0.82
				c0.26,0,0.46,0.21,0.46,0.46v3.78C329.81,270.53,329.6,270.73,329.35,270.73"/>
			<path class="st2" d="M167.41,271.85v-16.92c0-0.26,0.21-0.46,0.46-0.46h3.88c0.26,0,0.46,0.21,0.46,0.46v16.92
				c0,0.26-0.21,0.46-0.46,0.46h-3.88C167.62,272.32,167.41,272.11,167.41,271.85"/>
			<path class="st1" d="M116.68,260.43c0-73.99,59.08-136.38,133.08-136.38c44.53,0,83.99,21.72,108.35,55.16"/>
			<path class="st1" d="M382.46,269.85c0,73.99-59.98,133.98-133.98,133.98c-44.53,0-83.99-21.72-108.35-55.16"/>
			<path class="st2" d="M356.07,181.71l-2.27-3.16c-0.48-0.66-0.34-1.59,0.32-2.07l2.61-1.92c0.66-0.48,1.45-0.21,1.98,0.41
				l2.46,3.13c0.43,0.69,0.31,1.54-0.35,2.02l-2.61,1.92C357.55,182.52,356.56,182.36,356.07,181.71"/>
			<path class="st2" d="M138.74,351.88l-2.27-3.16c-0.48-0.66-0.34-1.59,0.32-2.07l2.61-1.92c0.66-0.48,1.45-0.21,1.98,0.41
				l2.46,3.13c0.43,0.69,0.31,1.54-0.35,2.02l-2.61,1.92C140.22,352.69,139.22,352.54,138.74,351.88"/>
		</g>
	</g>
</g>
</svg>
