<svg id="Capa_1" enable-background="new 0 0 512 512" height="512" viewBox="0 0 512 512" width="512" xmlns="http://www.w3.org/2000/svg"><g><circle cx="256" cy="332" fill="#f7ba57" r="180"/><g fill="#f29541"><path d="m436 332c0 99.25-80.75 180-180 180v-360c99.264 0 180 80.763 180 180z"/><circle cx="151.05" cy="390.5" r="14.5"/><circle cx="207.436" cy="377.5" r="14.5"/><circle cx="195.55" cy="435" r="14.5"/></g><path d="m253.6 108.448c-11.243-11.252-26.194-17.448-42.1-17.448-8.284 0-15 6.716-15 15s6.716 15 15 15c7.888 0 15.303 3.073 20.878 8.652 5.575 5.58 8.642 12.997 8.636 20.885l-.014 16.45c-.007 8.284 6.703 15.006 14.988 15.013h.013c8.278 0 14.993-6.708 15-14.987l.014-16.451c.011-15.906-6.173-30.862-17.415-42.114z" fill="#ac5743"/><path d="m271 167.01c-.01 8.28-6.72 14.99-15 14.99v-71c16.833 18.894 15.012 37.068 15 56.01z" fill="#823931"/><path d="m391.45 15v52.5c0 37.555-30.445 68-68 68h-57.5c-5.523 0-10-4.477-10-10v-57.5c0-37.555 30.445-68 68-68h52.5c8.284 0 15 6.716 15 15z" fill="#22bfa2"/><path d="m340.92 71.75-63.75 63.75h-11.22c-5.523 0-10-4.477-10-10v-11.21l63.45-63.46c5.72-5.71 15.02-6.23 20.99-.8 6.38 5.8 6.56 15.69.53 21.72z" fill="#28a085"/></g></svg>