<svg id="Capa_1" enable-background="new 0 0 512 512" height="512" viewBox="0 0 512 512" width="512" xmlns="http://www.w3.org/2000/svg"><g><g><path d="m193.797 110.21c-69.169 0-125.241 56.072-125.241 125.241 0 46.134 14.197 91.151 40.664 128.938l78.498 112.072c15.601 22.274 41.087 35.539 68.282 35.539l13.074-401.79z" fill="#e07037"/><path d="m318.203 110.21h-62.203v401.79c27.195 0 52.681-13.265 68.282-35.539l78.498-112.072c26.467-37.787 40.664-82.804 40.664-128.938 0-69.169-56.072-125.241-125.241-125.241z" fill="#dc4b4b"/></g><g><g><g><path d="m256 113.484h-56.63c-35.77 0-64.767-28.997-64.767-64.767v-48.717h56.63c35.77 0 64.767 28.997 64.767 64.767z" fill="#86ec88"/></g><g><path d="m256 113.484h56.63c35.77 0 64.767-28.997 64.767-64.767v-48.717h-56.63c-35.77 0-64.767 28.997-64.767 64.767z" fill="#72ca76"/></g></g><g><path d="m241 416.516h19.724v30h-19.724z" fill="#b31061"/></g><g><g><path d="m275.893 265.217h30v30h-30z" fill="#830c48"/></g><g><path d="m136.323 265.217h30v30h-30z" fill="#b31061"/></g><g><path d="m206.108 265.217h30v30h-30z" fill="#b31061"/></g></g><g><path d="m345.677 265.217h30v30h-30z" fill="#830c48"/></g><g><g><path d="m310.784 340.867h30v30h-30z" fill="#830c48"/></g><g><path d="m171.216 340.867h30v30h-30z" fill="#b31061"/></g><g><path d="m241 340.867h19.724v30h-19.724z" fill="#b31061"/></g></g><g><g><path d="m310.784 189.568h30v30h-30z" fill="#830c48"/></g><g><path d="m171.216 189.568h30v30h-30z" fill="#b31061"/></g><g><path d="m241 189.568h19.724v30h-19.724z" fill="#b31061"/></g></g></g><g><path d="m256 416.516h15v30h-15z" fill="#830c48"/></g><g><path d="m256 340.867h15v30h-15z" fill="#830c48"/></g><g><path d="m256 416.516h15v30h-15z" fill="#830c48"/></g><g><path d="m256 340.867h15v30h-15z" fill="#830c48"/></g><g><path d="m256 189.568h15v30h-15z" fill="#830c48"/></g></g></svg>