<svg id="Layer_5" enable-background="new 0 0 64 64" height="512" viewBox="0 0 64 64" width="512" xmlns="http://www.w3.org/2000/svg"><path d="m56 40.057-2 3.333v-6.39h3c1.103 0 2-.897 2-2v-2c0-1.103-.897-2-2-2h-1.431c-.433-.722-.96-1.363-1.569-1.907v-7.043c2.958-1.476 5-4.525 5-8.05s-2.042-6.574-5-8.05v-4.95h-8v4.95c-2.958 1.476-5 4.525-5 8.05s2.042 6.574 5 8.05v4.95h-.528c-2.923 0-5.556 1.525-7.041 4h-1.431c-1.103 0-2 .897-2 2v2c0 1.103.897 2 2 2h1v4.184c-1.161.414-2 1.514-2 2.816 0 1.654 1.346 3 3 3s3-1.346 3-3c0-1.302-.839-2.402-2-2.816v-4.184h6v6.184c-1.161.414-2 1.514-2 2.816 0 1.654 1.346 3 3 3s3-1.346 3-3c0-1.302-.839-2.402-2-2.816v-6.184h4v9.723l-2.566 4.277h-13.965l-5.469-6.562-.903 1.083-4.097-5.122-2 2.5v-7.899h3.358l.236-.666c.269-.761.406-1.546.406-2.334 0-.253-.015-.502-.041-.749 3.346-1.759 5.899-4.702 7.157-8.251h4.242l.236-.666c.269-.761.406-1.546.406-2.334 0-3.077-1.999-5.692-4.765-6.628-1.33-4.082-4.394-7.448-8.346-9.143-1.247-1.939-3.418-3.229-5.889-3.229s-4.642 1.29-5.888 3.229c-3.952 1.695-7.017 5.061-8.346 9.143-2.767.936-4.766 3.551-4.766 6.628 0 .788.137 1.573.406 2.334l.236.666h4.242c1.258 3.549 3.811 6.492 7.157 8.251-.026.247-.041.496-.041.749 0 .788.137 1.573.406 2.334l.236.666h3.358v13.038l-2.448 2.938-6.552-10.919-7 11.666v11.277h62v-11.277zm-17 4.943c-.551 0-1-.448-1-1s.449-1 1-1 1 .448 1 1-.449 1-1 1zm8 2c-.551 0-1-.448-1-1s.449-1 1-1 1 .448 1 1-.449 1-1 1zm-4-33c0-.34.033-.672.08-1h1.92v2h-1.92c-.047-.328-.08-.66-.08-1zm4-1h2v2h-2zm4 0h2v2h-2zm4 0h1.92c.047.328.08.66.08 1s-.033.672-.08 1h-1.92zm-7-10h4v2.232c-.644-.147-1.312-.232-2-.232s-1.356.085-2 .232zm2 4c2.785 0 5.189 1.639 6.315 4h-12.63c1.126-2.361 3.53-4 6.315-4zm-6.315 10h12.63c-1.126 2.361-3.53 4-6.315 4s-5.189-1.639-6.315-4zm4.315 5.768c.644.147 1.312.232 2 .232s1.356-.085 2-.232v5.001c-1.066-.494-2.243-.769-3.472-.769h-.528zm-2.528 6.232h3.056c1.271 0 2.466.387 3.472 1.063v.937h-11.107c1.16-1.261 2.802-2 4.579-2zm-8.472 4h20l.001 2h-20.001zm-4.135 18h-5.729l2.864-3.437zm-10 0h-5.729l2.864-3.437zm4.925-3.911-2.79 3.349-2.79-3.349 2.79-3.488zm-1.347-17.824c-.264-.62-.615-1.194-1.037-1.707 1.861-1.059 3.395-2.651 4.374-4.558h2.215c-1.101 2.638-3.057 4.837-5.552 6.265zm-10.253-3.129c-1.478-.696-2.749-1.787-3.658-3.136h1.826l.236-.666c.269-.761.406-1.546.406-2.334 0-.34-.033-.672-.08-1h2.264c.302.847.969 1.514 1.816 1.816v4.264c-1.025.147-1.978.513-2.81 1.056zm-1.797-15.136h4.607v4.184c-.847.302-1.514.969-1.816 1.816h-2.869c-.545-1.142-1.384-2.118-2.428-2.817.584-1.244 1.433-2.323 2.506-3.183zm11.214 0c1.073.86 1.922 1.939 2.506 3.183-1.043.699-1.883 1.675-2.428 2.817h-2.869c-.302-.847-.969-1.514-1.816-1.816v-4.184zm-5.607 8c-.551 0-1-.448-1-1s.449-1 1-1 1 .448 1 1-.449 1-1 1zm1 1.816c.847-.302 1.514-.969 1.816-1.816h2.264c-.047.328-.08.66-.08 1 0 .788.137 1.573.406 2.334l.236.666h1.826c-.909 1.349-2.18 2.44-3.658 3.136-.832-.542-1.785-.908-2.81-1.056zm16-.816c0 .334-.035.669-.104 1h-9.792c-.069-.331-.104-.666-.104-1 0-2.757 2.243-5 5-5s5 2.243 5 5zm-5.015-6.999c-.713.002-1.401.11-2.049.311-.719-1.53-1.771-2.861-3.096-3.913.096-.464.16-.93.16-1.399 0-.328-.031-.648-.074-.964 2.243 1.425 4.029 3.508 5.059 5.965zm-11.985-10.001c2.757 0 5 2.243 5 5 0 .334-.035.669-.104 1h-9.792c-.069-.331-.104-.666-.104-1 0-2.757 2.243-5 5-5zm-6.926 4.036c-.043.316-.074.636-.074.964 0 .469.064.935.16 1.398-1.325 1.052-2.377 2.384-3.096 3.913-.648-.201-1.336-.309-2.049-.311 1.03-2.456 2.816-4.539 5.059-5.964zm-10.074 12.964c0-2.757 2.243-5 5-5s5 2.243 5 5c0 .334-.035.669-.104 1h-9.792c-.069-.331-.104-.666-.104-1zm5.005 3h2.215c.98 1.907 2.513 3.499 4.374 4.558-.423.513-.773 1.087-1.037 1.707-2.495-1.428-4.451-3.627-5.552-6.265zm6.995 9c0-2.757 2.243-5 5-5s5 2.243 5 5c0 .334-.035.669-.104 1h-9.792c-.069-.331-.104-.666-.104-1zm4 3h2v10.399l-.097.122-.903-1.083-1 1.2zm-10 26h-2v-6h2zm4 0h-2v-8h-6v8h-2v-8.723l5-8.334 5 8.334zm8 0h-2v-4h2zm8 0h-2v-4h2zm8 0h-2v-4h2zm8 0h-2v-4h2zm2 0v-6h-6v6h-2v-6h-6v6h-2v-6h-6v6h-2v-6h-6v6h-2v-8h34v8zm10 0h-2v-6h2zm4 0h-2v-8h-6v8h-2v-8.723l5-8.334 5 8.334z"/></svg>