<svg id="Layer_5" enable-background="new 0 0 64 64" height="512" viewBox="0 0 64 64" width="512" xmlns="http://www.w3.org/2000/svg"><g><path fill="rgba(255, 255, 255, 0.7)" d="m61 43h-2v-4h2v-5c0-1.654-1.346-3-3-3h-4.683l-5.184-11.665c-.902-2.026-2.916-3.335-5.133-3.335s-4.231 1.309-5.133 3.335l-.825 1.856-2.035-5.595c-.781-2.151-2.845-3.596-5.133-3.596-2.137 0-4.089 1.257-4.974 3.202l-2.943 6.476-.168-.336c-.722-1.445-2.174-2.342-3.789-2.342s-3.067.897-3.789 2.342l-1.256 2.511c-.899-.542-1.898-.853-2.955-.853-3.859 0-7 4.037-7 9 0 4.525 2.614 8.27 6 8.897v4.103h-8v2h25c.552 0 1 .448 1 1s-.448 1-1 1h-10c-1.654 0-3 1.346-3 3s1.346 3 3 3h15c.552 0 1 .448 1 1 0 1.654 1.346 3 3 3h5c.552 0 1 .448 1 1s-.448 1-1 1h-39v2h39c1.654 0 3-1.346 3-3s-1.346-3-3-3h-5c-.552 0-1-.448-1-1 0-1.654-1.346-3-3-3h-15c-.552 0-1-.448-1-1s.448-1 1-1h10c1.654 0 3-1.346 3-3s-1.346-3-3-3h-6v-2.105c2.833-.558 5-3.433 5-6.895h12v3h2v4h-2c-1.103 0-2 .897-2 2v2c0 1.103.897 2 2 2v6h6v-6h12v6h6v-6c1.103 0 2-.897 2-2v-2c0-1.103-.897-2-2-2zm-4 0h-2v-4h2zm-4-4v4h-8v-4zm6-5v3h-20v-3c0-.552.448-1 1-1h18c.552 0 1 .448 1 1zm-43-11.764c.381-.762 1.147-1.236 2-1.236s1.619.474 2 1.236l.892 1.784-2.28 5.017c-.655.049-1.287.218-1.884.505-.383-1.728-1.155-3.245-2.19-4.382zm-11 9.764c0-3.859 2.243-7 5-7s5 3.141 5 7c0 3.38-1.721 6.208-4 6.859v-5.526l2.8-3.733-1.6-1.2-1.2 1.6v-1h-2v4.39l-1.143-1.904-1.715 1.029 2.858 4.762v1.582c-2.279-.651-4-3.479-4-6.859zm6 13v-4.103c1.036-.192 2-.669 2.838-1.379.891 1.772 2.411 3.032 4.162 3.381v2.101zm9-4.177v-5.823h-2v5.821c-1.206-.4-2.218-1.493-2.696-2.965 1.054-1.575 1.696-3.619 1.696-5.856 0-.099-.009-.195-.012-.294.614-.454 1.299-.706 2.012-.706 2.206 0 4 2.243 4 5 0 2.323-1.279 4.263-3 4.823zm4.747-6.823c-.579-2.261-2.112-4.043-4.053-4.711l6.026-13.258c.562-1.234 1.8-2.031 3.154-2.031 1.451 0 2.759.916 3.255 2.279l2.743 7.544-4.522 10.177zm8.792 0 6.156-13.853c.58-1.304 1.877-2.147 3.305-2.147s2.725.843 3.305 2.147l4.823 10.853h-11.128c-1.654 0-3 1.346-3 3zm7.461 5h2v4h-2zm0 14h-2v-4h2zm18 0h-2v-4h2zm-22-6v-2h24l.002 2z"/><path fill="rgba(255, 255, 255, 0.7)" d="m11 13c3.309 0 6-2.691 6-6s-2.691-6-6-6-6 2.691-6 6 2.691 6 6 6zm0-10c2.206 0 4 1.794 4 4s-1.794 4-4 4-4-1.794-4-4 1.794-4 4-4z"/><path fill="rgba(255, 255, 255, 0.7)" d="m35 8h8c.552 0 1 .448 1 1s-.448 1-1 1-1-.448-1-1h-2c0 1.654 1.346 3 3 3s3-1.346 3-3-1.346-3-3-3h-5.184c.112-.314.184-.648.184-1 0-1.654-1.346-3-3-3s-3 1.346-3 3h2c0-.552.448-1 1-1s1 .448 1 1-.448 1-1 1h-7-3v2h3z"/><path fill="rgba(255, 255, 255, 0.7)" d="m63 15c0-1.654-1.346-3-3-3s-3 1.346-3 3h2c0-.552.448-1 1-1s1 .448 1 1-.448 1-1 1h-9v2h9c1.654 0 3-1.346 3-3z"/><path fill="rgba(255, 255, 255, 0.7)" d="m1 6h2v2h-2z"/><path fill="rgba(255, 255, 255, 0.7)" d="m3.636 12.364h2v2h-2z" transform="matrix(.707 -.707 .707 .707 -8.092 7.192)"/><path fill="rgba(255, 255, 255, 0.7)" d="m10 15h2v2h-2z"/><path fill="rgba(255, 255, 255, 0.7)" d="m16.364 12.364h2v2h-2z" transform="matrix(.707 -.707 .707 .707 -4.364 16.193)"/><path fill="rgba(255, 255, 255, 0.7)" d="m19 6h2v2h-2z"/></g></svg>